<?xml version="1.0" encoding="UTF-8"?> <!-- Generator: Adobe Illustrator 21.1.0, SVG Export Plug-In . SVG Version: 6.00 Build 0) --> <svg xmlns="http://www.w3.org/2000/svg" xmlns:xlink="http://www.w3.org/1999/xlink" id="Layer_1" x="0px" y="0px" viewBox="0 0 71.8 71.8" style="enable-background:new 0 0 71.8 71.8;" xml:space="preserve"> <style type="text/css"> .st0{fill:#47BAEB;} .st1{fill:#FFFFFF;} </style> <g> <path class="st0" d="M0,35.9C0,16.1,16.1,0,35.9,0s35.9,16.1,35.9,35.9S55.7,71.8,35.9,71.8S0,55.7,0,35.9z"></path> <g> <path class="st1" d="M24.6,48.5c0-1.4,0.1-2.6,0.3-3.8c0.2-1.1,0.6-2.2,1.1-3.1c0.5-1,1.3-1.8,2.2-2.7c0.9-0.8,2.1-1.6,3.6-2.4 c1.3-0.7,2.4-1.3,3.4-1.8s1.8-1,2.4-1.4s1.1-0.9,1.5-1.3c0.3-0.4,0.5-1,0.5-1.5c0-0.9-0.4-1.7-1.1-2.4c-0.7-0.7-1.8-1-3.2-1 c-0.7,0-1.4,0.1-2,0.3c-0.6,0.2-1.2,0.5-1.7,0.8c-0.5,0.3-1,0.7-1.5,1.1c-0.4,0.4-0.9,0.9-1.2,1.3l-4-4.6c0.4-0.4,1-0.9,1.7-1.4 c0.7-0.5,1.6-1,2.6-1.4c1-0.4,2.1-0.8,3.3-1.1c1.2-0.3,2.5-0.4,3.9-0.4c1.6,0,3,0.2,4.2,0.6c1.2,0.4,2.3,0.9,3.1,1.6 s1.5,1.5,1.9,2.5c0.4,1,0.7,2,0.7,3.2c0,1.1-0.2,2-0.6,2.9c-0.4,0.8-0.9,1.6-1.5,2.2c-0.6,0.6-1.3,1.2-2,1.7 c-0.7,0.5-1.4,0.9-2.1,1.3c-0.6,0.3-1.2,0.7-1.9,1.1c-0.7,0.4-1.4,0.8-2.1,1.3c-0.7,0.5-1.3,1-1.9,1.5c-0.6,0.5-1,1-1.3,1.5h14 v5.6H24.6z"></path> </g> </g> </svg> 