<?xml version="1.0" encoding="UTF-8"?> <!-- Generator: Adobe Illustrator 21.1.0, SVG Export Plug-In . SVG Version: 6.00 Build 0) --> <svg xmlns="http://www.w3.org/2000/svg" xmlns:xlink="http://www.w3.org/1999/xlink" id="Layer_1" x="0px" y="0px" viewBox="0 0 71.8 71.8" style="enable-background:new 0 0 71.8 71.8;" xml:space="preserve"> <style type="text/css"> .st0{fill:#47BAEB;} .st1{fill:#FFFFFF;} </style> <g> <path class="st0" d="M0,36.3C0,16.5,16.1,0.4,35.9,0.4s35.9,16.1,35.9,35.9S55.7,72.2,35.9,72.2S0,56.1,0,36.3z"></path> <g> <path class="st1" d="M40,35.3c1.7,0.3,3.1,1.1,4.2,2.5s1.6,3,1.6,5c0,1.3-0.3,2.5-0.8,3.6s-1.2,2-2.2,2.7 c-0.9,0.7-2.1,1.3-3.4,1.7c-1.3,0.4-2.9,0.6-4.5,0.6c-2.1,0-4-0.3-5.6-1c-1.6-0.7-3-1.7-4.1-3l3.2-4c0.7,0.9,1.6,1.6,2.6,2.1 c1,0.5,2.3,0.8,3.8,0.8c1.7,0,3-0.3,3.9-1c0.9-0.7,1.3-1.7,1.3-3.1c0-1.5-0.5-2.6-1.6-3.4c-1-0.8-2.6-1.2-4.7-1.2h-1.2v-4.2h1.3 c1.7,0,3.1-0.4,4-1.2s1.4-1.8,1.4-3c0-1.1-0.4-2-1.2-2.6c-0.8-0.6-1.8-0.8-3.1-0.8c-1.3,0-2.4,0.3-3.5,0.9c-1,0.6-1.9,1.4-2.5,2.5 l-3.5-3.9c0.4-0.6,1-1.2,1.7-1.7c0.7-0.5,1.5-1,2.4-1.3s1.8-0.7,2.9-0.9c1-0.2,2.1-0.3,3.2-0.3c1.4,0,2.7,0.2,3.9,0.5 c1.2,0.4,2.2,0.9,3,1.5c0.9,0.6,1.5,1.4,2,2.3c0.5,0.9,0.7,1.9,0.7,3c0,0.8-0.1,1.6-0.4,2.4c-0.3,0.8-0.6,1.4-1.1,2.1 c-0.5,0.6-1,1.1-1.7,1.6C41.5,34.9,40.8,35.2,40,35.3z"></path> </g> </g> </svg> 