<?xml version="1.0" encoding="UTF-8"?> <!-- Generator: Adobe Illustrator 21.1.0, SVG Export Plug-In . SVG Version: 6.00 Build 0) --> <svg xmlns="http://www.w3.org/2000/svg" xmlns:xlink="http://www.w3.org/1999/xlink" id="Layer_1" x="0px" y="0px" viewBox="0 0 71.8 71.8" style="enable-background:new 0 0 71.8 71.8;" xml:space="preserve"> <style type="text/css"> .st0{fill:#47BAEB;} .st1{fill:#FFFFFF;} </style> <g> <path class="st0" d="M0,35.9C0,16.1,16.1,0,35.9,0s35.9,16.1,35.9,35.9S55.7,71.8,35.9,71.8S0,55.7,0,35.9z"></path> <g> <path class="st1" d="M46.2,42.9v5.6H27.5v-5.6H34v-14c-0.3,0.4-0.7,0.7-1.3,1.1c-0.6,0.4-1.3,0.7-2,1.1s-1.4,0.6-2.2,0.8 c-0.8,0.2-1.4,0.3-2,0.3v-5.8c0.6,0,1.2-0.2,2-0.5c0.8-0.4,1.6-0.8,2.4-1.3c0.8-0.5,1.4-1,2-1.5c0.6-0.5,0.9-0.9,1.1-1.1h6.3v20.8 H46.2z"></path> </g> </g> </svg> 